<svg xmlns="http://www.w3.org/2000/svg" width="17.411" height="21.501" viewBox="0 0 23.191 23.191"><defs><style>.a6{fill:none;stroke:currentColor;stroke-linecap:round;stroke-linejoin:round;stroke-width:2px;}</style></defs><g transform="translate(0.998 1)"><ellipse class="a6" cx="3.5" cy="3" rx="3.5" ry="3" transform="translate(7.413 7.866)"/><path class="a6" d="M18.723,14.485a1.589,1.589,0,0,0,.318,1.753l.058.058a1.927,1.927,0,1,1-2.726,2.726l-.058-.058A1.6,1.6,0,0,0,13.6,20.1v.164a1.926,1.926,0,1,1-3.853,0v-.087a1.589,1.589,0,0,0-1.04-1.454,1.589,1.589,0,0,0-1.753.318l-.058.058a1.927,1.927,0,1,1-2.726-2.726l.058-.058A1.6,1.6,0,0,0,3.09,13.6H2.926a1.926,1.926,0,0,1,0-3.853h.087a1.589,1.589,0,0,0,1.454-1.04A1.589,1.589,0,0,0,4.15,6.953l-.058-.058A1.927,1.927,0,1,1,6.818,4.169l.058.058a1.589,1.589,0,0,0,1.753.318h.077A1.589,1.589,0,0,0,9.669,3.09V2.926a1.926,1.926,0,1,1,3.853,0v.087A1.6,1.6,0,0,0,16.238,4.15l.058-.058a1.927,1.927,0,1,1,2.726,2.726l-.058.058a1.589,1.589,0,0,0-.318,1.753v.077a1.589,1.589,0,0,0,1.454.963h.164a1.926,1.926,0,0,1,0,3.853h-.087A1.589,1.589,0,0,0,18.723,14.485Z" transform="translate(-0.998 -1)"/></g></svg>